<svg width="235" height="235" viewBox="0 0 235 235" fill="none" xmlns="http://www.w3.org/2000/svg">
<path d="M192.291 48.4099C180.598 21.7468 152.529 11.7076 130.383 29.6099C121.735 36.5941 116.339 47.7096 105.75 52.1699C95.8142 56.3529 83.2276 55.1215 72.4834 57.3869C49.6038 62.1809 18.8 80.3699 21.15 108.396C22.1793 120.672 30.4607 134.307 34.5544 145.794C39.2544 159.01 42.0744 175.545 54.5153 183.446C75.8439 197.01 101.572 185.923 120.785 174.986C131.125 169.106 136.817 165.492 147.951 167.508C158.258 169.388 167.541 175.968 177.613 168.161C185.175 162.3 185.8 150.423 192.15 143.449C199.304 135.59 206.556 135.022 210.273 123.21C214.781 108.88 208.14 99.9266 203.651 87.1238C199.163 74.321 197.8 60.9542 192.291 48.4099Z" fill="#CC9F68"/>
<g opacity="0.7">
<path d="M192.291 48.4099C180.598 21.7468 152.529 11.7076 130.383 29.6099C121.735 36.5941 116.339 47.7096 105.75 52.1699C95.8142 56.3529 83.2276 55.1215 72.4834 57.3869C49.6038 62.1809 18.8 80.3699 21.15 108.396C22.1793 120.672 30.4607 134.307 34.5544 145.794C39.2544 159.01 42.0744 175.545 54.5153 183.446C75.8439 197.01 101.572 185.923 120.785 174.986C131.125 169.106 136.817 165.492 147.951 167.508C158.258 169.388 167.541 175.968 177.613 168.161C185.175 162.3 185.8 150.423 192.15 143.449C199.304 135.59 206.556 135.022 210.273 123.21C214.781 108.88 208.14 99.9266 203.651 87.1238C199.163 74.321 197.8 60.9542 192.291 48.4099Z" fill="white"/>
</g>
<path d="M103.311 205.71C143.436 205.71 175.963 203.683 175.963 201.184C175.963 198.684 143.436 196.657 103.311 196.657C63.1858 196.657 30.6581 198.684 30.6581 201.184C30.6581 203.683 63.1858 205.71 103.311 205.71Z" fill="#CC9F68"/>
<path opacity="0.8" d="M103.311 205.71C143.436 205.71 175.963 203.683 175.963 201.184C175.963 198.684 143.436 196.657 103.311 196.657C63.1858 196.657 30.6581 198.684 30.6581 201.184C30.6581 203.683 63.1858 205.71 103.311 205.71Z" fill="white"/>
<path d="M157.906 29.0742H84.8538C79.8103 29.0742 75.7217 33.1628 75.7217 38.2063V192.432C75.7217 197.476 79.8103 201.564 84.8538 201.564H157.906C162.949 201.564 167.038 197.476 167.038 192.432V38.2063C167.038 33.1628 162.949 29.0742 157.906 29.0742Z" fill="#263238"/>
<path d="M162.977 48.0153H79.7778V182.623H162.977V48.0153Z" fill="white" stroke="#263238" stroke-width="1.33739" stroke-miterlimit="10"/>
<path d="M121.382 107.804C131.342 107.804 139.416 99.7298 139.416 89.77C139.416 79.8101 131.342 71.7361 121.382 71.7361C111.422 71.7361 103.348 79.8101 103.348 89.77C103.348 99.7298 111.422 107.804 121.382 107.804Z" fill="#CC9F68"/>
<path d="M145.056 174.158H97.7083C97.6017 174.159 97.4961 174.139 97.3974 174.098C97.2988 174.058 97.2092 173.999 97.1336 173.923C97.058 173.848 96.9981 173.759 96.9571 173.661C96.9162 173.562 96.8952 173.457 96.8952 173.35C96.8945 173.243 96.9151 173.137 96.9558 173.038C96.9964 172.939 97.0563 172.849 97.1319 172.774C97.2075 172.698 97.2974 172.638 97.3964 172.598C97.4953 172.557 97.6013 172.536 97.7083 172.537H145.056C145.163 172.537 145.268 172.558 145.367 172.599C145.465 172.64 145.554 172.7 145.629 172.775C145.704 172.851 145.764 172.941 145.804 173.039C145.845 173.138 145.865 173.244 145.864 173.35C145.864 173.564 145.779 173.77 145.628 173.922C145.476 174.073 145.27 174.158 145.056 174.158Z" fill="#CC9F68"/>
<path d="M146.598 117.942H96.162C95.1211 117.942 94.2773 118.786 94.2773 119.826V125.772C94.2773 126.813 95.1211 127.657 96.162 127.657H146.598C147.639 127.657 148.482 126.813 148.482 125.772V119.826C148.482 118.786 147.639 117.942 146.598 117.942Z" fill="#CC9F68"/>
<path d="M146.598 136.112H96.162C95.1211 136.112 94.2773 136.956 94.2773 137.997V143.942C94.2773 144.983 95.1211 145.827 96.162 145.827H146.598C147.639 145.827 148.482 144.983 148.482 143.942V137.997C148.482 136.956 147.639 136.112 146.598 136.112Z" fill="#CC9F68"/>
<path d="M130.359 98.7658L125.053 95.7108V93.1869C125.821 92.2574 126.378 91.1716 126.684 90.005C126.866 90.0699 127.059 90.1033 127.252 90.1037C127.91 90.1037 128.329 88.0639 128.399 86.6069C129.165 84.9854 128.122 84.036 128.122 84.036C128.122 84.036 128.554 83.6036 128.841 81.8693C129.128 80.135 127.831 80.8588 126.82 79.2702C125.81 77.6816 125.086 75.952 121.768 75.952C120.853 75.922 119.951 76.1677 119.178 76.6572C118.405 77.1467 117.798 77.8574 117.434 78.6968C116.608 78.6998 115.785 78.796 114.981 78.9835C113.966 79.2702 113.679 82.5931 114.544 83.895C114.931 84.6065 115.137 85.4022 115.145 86.2121C114.915 85.9301 114.675 85.8549 114.544 86.4941C114.257 87.937 115.413 89.958 115.413 89.958L116.01 89.7888C116.311 91.0355 116.891 92.1975 117.707 93.1869V95.7108L112.4 98.7658C111.781 99.1236 111.266 99.6381 110.908 100.258C110.55 100.877 110.361 101.58 110.361 102.296V104.044C113.517 106.482 117.392 107.804 121.38 107.804C125.368 107.804 129.243 106.482 132.399 104.044V102.296C132.399 101.58 132.211 100.877 131.853 100.257C131.495 99.6372 130.979 99.1229 130.359 98.7658Z" fill="#263238"/>
<path d="M101.144 143.411C101.022 143.409 100.906 143.36 100.82 143.275C100.773 143.233 100.737 143.183 100.711 143.126C100.686 143.069 100.674 143.008 100.674 142.946C100.675 142.861 100.7 142.778 100.744 142.706L101.59 141.352L99.9408 141.404C99.8786 141.408 99.8163 141.399 99.758 141.377C99.6997 141.355 99.6467 141.321 99.6024 141.277C99.5257 141.191 99.4834 141.08 99.4834 140.965C99.4834 140.849 99.5257 140.738 99.6024 140.652C99.6457 140.607 99.6984 140.571 99.7569 140.549C99.8154 140.526 99.8782 140.516 99.9408 140.521L101.567 140.582L100.73 139.233C100.685 139.159 100.66 139.075 100.66 138.988C100.659 138.926 100.672 138.865 100.697 138.808C100.722 138.751 100.759 138.701 100.806 138.659C100.892 138.574 101.008 138.525 101.13 138.523C101.21 138.524 101.288 138.547 101.356 138.59C101.423 138.633 101.477 138.695 101.511 138.767L102.314 140.22L103.109 138.777C103.146 138.7 103.204 138.635 103.276 138.588C103.348 138.542 103.432 138.516 103.517 138.514C103.577 138.514 103.636 138.527 103.69 138.551C103.744 138.575 103.793 138.611 103.832 138.655C103.919 138.744 103.966 138.864 103.964 138.988C103.964 139.069 103.943 139.148 103.903 139.219L103.052 140.582L104.702 140.521C104.764 140.516 104.827 140.526 104.886 140.549C104.944 140.571 104.997 140.607 105.04 140.652C105.12 140.735 105.164 140.847 105.162 140.962C105.162 141.079 105.119 141.191 105.04 141.277C104.996 141.321 104.943 141.355 104.885 141.377C104.826 141.399 104.764 141.408 104.702 141.404L103.043 141.352L103.87 142.692C103.916 142.767 103.941 142.853 103.94 142.941C103.94 143.066 103.891 143.185 103.803 143.273C103.715 143.362 103.595 143.411 103.47 143.411C103.39 143.41 103.311 143.385 103.245 143.34C103.178 143.295 103.126 143.232 103.094 143.157L102.31 141.747L101.529 143.157C101.495 143.231 101.44 143.294 101.372 143.338C101.304 143.383 101.225 143.408 101.144 143.411Z" fill="#263238"/>
<path d="M108.767 143.411C108.646 143.409 108.529 143.36 108.443 143.275C108.397 143.233 108.36 143.183 108.335 143.126C108.31 143.069 108.297 143.008 108.297 142.946C108.299 142.861 108.323 142.778 108.368 142.706L109.214 141.352L107.569 141.404C107.506 141.407 107.443 141.397 107.384 141.375C107.326 141.354 107.272 141.32 107.226 141.277C107.163 141.213 107.122 141.131 107.106 141.043C107.091 140.955 107.103 140.864 107.14 140.782C107.177 140.7 107.237 140.632 107.314 140.585C107.391 140.539 107.479 140.516 107.569 140.521L109.19 140.582L108.354 139.233C108.308 139.159 108.284 139.075 108.283 138.988C108.283 138.926 108.296 138.865 108.321 138.808C108.346 138.751 108.383 138.701 108.429 138.659C108.515 138.574 108.632 138.525 108.753 138.523C108.833 138.524 108.912 138.547 108.979 138.59C109.046 138.633 109.1 138.695 109.134 138.767L109.938 140.22L110.732 138.777C110.77 138.7 110.828 138.635 110.9 138.588C110.972 138.542 111.055 138.516 111.141 138.514C111.2 138.513 111.259 138.526 111.314 138.55C111.368 138.575 111.416 138.61 111.456 138.655C111.499 138.699 111.534 138.751 111.557 138.808C111.581 138.865 111.592 138.927 111.592 138.988C111.59 139.07 111.568 139.149 111.526 139.219L110.676 140.582L112.33 140.53C112.392 140.526 112.454 140.535 112.512 140.558C112.569 140.581 112.621 140.616 112.664 140.662C112.744 140.745 112.788 140.856 112.786 140.972C112.786 141.088 112.742 141.2 112.664 141.287C112.62 141.33 112.568 141.364 112.511 141.386C112.453 141.408 112.391 141.417 112.33 141.414L110.666 141.362L111.493 142.701C111.54 142.776 111.564 142.862 111.564 142.95C111.564 143.075 111.514 143.195 111.426 143.283C111.338 143.371 111.219 143.42 111.094 143.42C111.013 143.419 110.935 143.395 110.868 143.35C110.801 143.305 110.749 143.241 110.718 143.167L109.933 141.757L109.153 143.167C109.117 143.239 109.062 143.299 108.994 143.342C108.926 143.386 108.848 143.409 108.767 143.411Z" fill="#263238"/>
<path d="M116.395 143.411C116.272 143.411 116.154 143.362 116.066 143.275C116.02 143.233 115.983 143.183 115.958 143.126C115.933 143.069 115.92 143.008 115.921 142.946C115.922 142.861 115.947 142.778 115.991 142.706L116.837 141.352L115.192 141.404C115.104 141.408 115.016 141.385 114.941 141.338C114.865 141.292 114.805 141.224 114.768 141.143C114.731 141.063 114.719 140.973 114.734 140.885C114.748 140.798 114.788 140.717 114.849 140.652C114.894 140.607 114.947 140.572 115.006 140.549C115.066 140.526 115.129 140.517 115.192 140.521L116.814 140.582L115.977 139.233C115.932 139.159 115.907 139.075 115.907 138.988C115.908 138.927 115.922 138.866 115.947 138.809C115.972 138.753 116.008 138.702 116.052 138.659C116.14 138.573 116.258 138.524 116.381 138.523C116.461 138.524 116.538 138.548 116.604 138.591C116.671 138.635 116.724 138.696 116.757 138.767L117.561 140.22L118.355 138.777C118.393 138.7 118.451 138.635 118.523 138.588C118.595 138.542 118.679 138.516 118.764 138.514C118.824 138.513 118.883 138.526 118.937 138.55C118.991 138.575 119.04 138.61 119.079 138.655C119.123 138.699 119.157 138.751 119.181 138.808C119.204 138.865 119.216 138.927 119.215 138.988C119.214 139.07 119.191 139.149 119.15 139.219L118.299 140.582L119.953 140.521C120.014 140.514 120.076 140.522 120.134 140.541C120.191 140.561 120.244 140.593 120.289 140.635C120.333 140.676 120.369 140.727 120.392 140.784C120.415 140.84 120.426 140.901 120.423 140.962C120.424 141.078 120.383 141.19 120.306 141.277C120.262 141.321 120.209 141.355 120.15 141.377C120.092 141.399 120.03 141.408 119.967 141.404L118.308 141.352L119.131 142.692C119.177 142.767 119.202 142.853 119.201 142.941C119.2 143.003 119.186 143.064 119.161 143.12C119.136 143.177 119.1 143.227 119.056 143.27C119.015 143.314 118.965 143.349 118.91 143.374C118.855 143.398 118.796 143.411 118.736 143.411C118.656 143.41 118.578 143.385 118.512 143.34C118.446 143.295 118.395 143.231 118.365 143.157L117.575 141.747L116.795 143.157C116.76 143.233 116.703 143.298 116.633 143.343C116.562 143.388 116.479 143.412 116.395 143.411Z" fill="#263238"/>
<path d="M124.019 143.411C123.896 143.411 123.777 143.362 123.69 143.275C123.601 143.188 123.551 143.07 123.549 142.946C123.547 142.861 123.57 142.778 123.615 142.706L124.461 141.352L122.816 141.404C122.753 141.407 122.69 141.397 122.631 141.375C122.572 141.354 122.518 141.32 122.473 141.277C122.396 141.191 122.354 141.08 122.354 140.965C122.354 140.849 122.396 140.738 122.473 140.652C122.518 140.608 122.572 140.574 122.631 140.551C122.69 140.529 122.753 140.518 122.816 140.521L124.442 140.582L123.61 139.233C123.564 139.159 123.54 139.075 123.539 138.988C123.541 138.927 123.555 138.866 123.58 138.809C123.605 138.753 123.64 138.702 123.685 138.659C123.773 138.573 123.891 138.524 124.014 138.523C124.094 138.524 124.173 138.547 124.24 138.59C124.307 138.633 124.361 138.695 124.395 138.767L125.194 140.22L125.988 138.777C126.026 138.7 126.084 138.635 126.156 138.588C126.228 138.542 126.311 138.516 126.397 138.514C126.457 138.513 126.515 138.526 126.57 138.55C126.624 138.575 126.673 138.61 126.712 138.655C126.756 138.699 126.79 138.751 126.813 138.808C126.837 138.865 126.849 138.927 126.848 138.988C126.847 139.07 126.824 139.149 126.782 139.219L125.932 140.582L127.586 140.521C127.647 140.514 127.708 140.522 127.766 140.541C127.824 140.561 127.877 140.593 127.922 140.635C127.966 140.676 128.001 140.727 128.024 140.784C128.048 140.84 128.058 140.901 128.056 140.962C128.057 141.078 128.015 141.19 127.939 141.277C127.894 141.321 127.841 141.355 127.783 141.377C127.725 141.399 127.662 141.408 127.6 141.404L125.941 141.352L126.764 142.692C126.81 142.767 126.834 142.853 126.834 142.941C126.835 143.003 126.822 143.065 126.797 143.121C126.772 143.178 126.735 143.229 126.688 143.27C126.648 143.314 126.598 143.349 126.543 143.374C126.488 143.398 126.429 143.411 126.369 143.411C126.289 143.41 126.211 143.385 126.145 143.34C126.079 143.295 126.028 143.231 125.998 143.157L125.208 141.747L124.428 143.157C124.392 143.235 124.334 143.3 124.261 143.346C124.189 143.391 124.104 143.413 124.019 143.411Z" fill="#263238"/>
<path d="M131.642 143.411C131.519 143.411 131.401 143.362 131.313 143.275C131.24 143.201 131.194 143.105 131.181 143.002C131.169 142.9 131.19 142.795 131.243 142.706L132.084 141.352L130.439 141.404C130.376 141.407 130.314 141.397 130.255 141.375C130.196 141.354 130.142 141.32 130.096 141.277C130.019 141.191 129.977 141.08 129.977 140.965C129.977 140.849 130.019 140.738 130.096 140.652C130.141 140.608 130.195 140.574 130.254 140.551C130.313 140.529 130.376 140.518 130.439 140.521L132.065 140.582L131.229 139.233C131.183 139.159 131.159 139.075 131.158 138.988C131.16 138.864 131.211 138.746 131.299 138.659C131.387 138.573 131.505 138.524 131.628 138.523C131.708 138.524 131.787 138.547 131.854 138.59C131.921 138.633 131.975 138.695 132.009 138.767L132.808 140.22L133.602 138.777C133.64 138.7 133.698 138.635 133.77 138.588C133.842 138.542 133.925 138.516 134.011 138.514C134.071 138.513 134.131 138.526 134.186 138.55C134.241 138.574 134.29 138.61 134.331 138.655C134.417 138.744 134.464 138.864 134.462 138.988C134.461 139.07 134.438 139.149 134.396 139.219L133.546 140.582L135.2 140.521C135.261 140.514 135.322 140.522 135.38 140.541C135.438 140.561 135.491 140.593 135.536 140.635C135.58 140.676 135.615 140.727 135.638 140.784C135.662 140.84 135.672 140.901 135.67 140.962C135.671 141.078 135.629 141.19 135.553 141.277C135.508 141.321 135.455 141.355 135.397 141.377C135.339 141.399 135.276 141.408 135.214 141.404L133.555 141.352L134.378 142.692C134.424 142.767 134.448 142.853 134.448 142.941C134.449 143.003 134.436 143.065 134.411 143.121C134.386 143.178 134.349 143.229 134.302 143.27C134.262 143.314 134.212 143.349 134.157 143.374C134.102 143.398 134.043 143.411 133.983 143.411C133.903 143.41 133.825 143.385 133.759 143.34C133.693 143.295 133.642 143.231 133.612 143.157L132.822 141.747L132.042 143.157C132.007 143.233 131.95 143.298 131.879 143.343C131.809 143.388 131.726 143.412 131.642 143.411Z" fill="#263238"/>
<path d="M139.266 143.411C139.144 143.409 139.028 143.36 138.941 143.275C138.895 143.233 138.858 143.183 138.833 143.126C138.808 143.069 138.795 143.008 138.796 142.946C138.797 142.861 138.821 142.778 138.866 142.706L139.707 141.352L138.062 141.404C138.002 141.409 137.941 141.401 137.884 141.38C137.827 141.36 137.774 141.328 137.73 141.287C137.686 141.245 137.651 141.195 137.627 141.139C137.603 141.083 137.592 141.023 137.592 140.962C137.592 140.905 137.603 140.848 137.625 140.795C137.647 140.741 137.679 140.693 137.719 140.652C137.763 140.607 137.815 140.571 137.874 140.549C137.932 140.526 137.995 140.516 138.058 140.521L139.684 140.582L138.847 139.233C138.802 139.159 138.777 139.075 138.777 138.988C138.779 138.864 138.829 138.746 138.918 138.659C139.005 138.573 139.124 138.524 139.247 138.523C139.327 138.524 139.405 138.547 139.473 138.59C139.54 138.633 139.594 138.695 139.628 138.767L140.427 140.22L141.226 138.777C141.263 138.701 141.32 138.636 141.391 138.589C141.462 138.543 141.545 138.517 141.63 138.514C141.69 138.513 141.75 138.526 141.805 138.55C141.86 138.574 141.909 138.61 141.949 138.655C142.036 138.744 142.083 138.864 142.081 138.988C142.081 139.069 142.06 139.148 142.02 139.219L141.169 140.582L142.819 140.521C142.881 140.516 142.944 140.526 143.003 140.549C143.061 140.571 143.114 140.607 143.157 140.652C143.237 140.735 143.281 140.847 143.279 140.962C143.279 141.079 143.236 141.191 143.157 141.277C143.113 141.321 143.06 141.355 143.002 141.377C142.943 141.399 142.881 141.408 142.819 141.404L141.16 141.352L141.982 142.692C142.029 142.767 142.053 142.853 142.053 142.941C142.051 143.065 142 143.183 141.912 143.27C141.826 143.358 141.71 143.408 141.587 143.411C141.508 143.41 141.43 143.385 141.364 143.34C141.298 143.295 141.246 143.231 141.216 143.157L140.427 141.747L139.646 143.157C139.613 143.231 139.559 143.293 139.492 143.338C139.425 143.383 139.346 143.408 139.266 143.411Z" fill="#263238"/>
<g style="mix-blend-mode:multiply">
<path d="M162.977 48.1938H79.7778V53.4061H162.977V48.1938Z" fill="#CC9F68"/>
</g>
<path d="M130.425 38.5917H112.33C112.003 38.5917 111.69 38.462 111.459 38.231C111.228 38.0001 111.099 37.6869 111.099 37.3603C111.099 37.0337 111.228 36.7205 111.459 36.4896C111.69 36.2586 112.003 36.1289 112.33 36.1289H130.425C130.752 36.1289 131.065 36.2586 131.296 36.4896C131.527 36.7205 131.656 37.0337 131.656 37.3603C131.656 37.6869 131.527 38.0001 131.296 38.231C131.065 38.462 130.752 38.5917 130.425 38.5917Z" fill="#CC9F68" stroke="#263238" stroke-width="1.33739" stroke-linecap="round" stroke-linejoin="round"/>
<path d="M126.313 190.228C126.313 189.251 126.025 188.297 125.483 187.484C124.941 186.672 124.17 186.039 123.268 185.665C122.366 185.291 121.374 185.192 120.416 185.383C119.458 185.573 118.578 186.043 117.888 186.734C117.197 187.424 116.727 188.304 116.537 189.261C116.347 190.219 116.445 191.212 116.819 192.114C117.193 193.016 117.826 193.786 118.639 194.328C119.451 194.87 120.406 195.159 121.382 195.158C122.689 195.157 123.943 194.637 124.867 193.713C125.791 192.788 126.311 191.535 126.313 190.228Z" fill="#CC9F68"/>
<path d="M123.883 187.727H118.882V192.728H123.883V187.727Z" fill="#CC9F68" stroke="#263238" stroke-width="1.33739" stroke-linecap="round" stroke-linejoin="round"/>
<path d="M180.95 133.48C180.95 133.48 174.398 116.833 180.231 114.854C186.303 112.791 186.035 123.784 185.8 129.142C185.307 140.591 184.043 142.72 183.098 139.924L180.95 133.48ZM178.981 146.466C180.781 148.816 181.288 146.381 178.041 135.388C176.518 130.218 173.209 119.761 168.133 123.685C163.259 127.445 174.859 141.075 174.859 141.075L178.981 146.466ZM175.503 156.007C177.218 157.53 177.251 155.608 173.176 147.669C171.263 143.952 167.217 136.427 163.903 140.149C160.721 143.74 171.564 152.468 171.564 152.468L175.503 156.007ZM171.743 167.353C173.458 168.88 173.491 166.953 169.416 159.02C167.503 155.302 163.457 147.773 160.143 151.5C156.98 155.1 167.79 163.828 167.79 163.828L171.743 167.353ZM182.6 144.257C179.855 145.329 182.036 146.494 193.499 146.461C198.876 146.461 209.855 146.217 207.514 140.243C205.272 134.505 188.945 141.813 188.945 141.813L182.6 144.257ZM179.474 151.89C176.57 152.393 178.478 153.972 189.72 156.219C194.989 157.276 205.794 159.227 204.69 152.929C203.632 146.856 186.176 150.776 186.176 150.776L179.474 151.89ZM175.977 161.21C173.505 161.567 175.084 162.944 184.536 165.106C188.968 166.121 198.063 168.025 197.273 162.653C196.521 157.483 181.669 160.406 181.669 160.406L175.977 161.21ZM173.322 169.844C170.901 170.46 172.617 171.663 182.252 172.81C186.764 173.345 196.009 174.276 194.66 169.017C193.358 163.969 178.901 168.439 178.901 168.439L173.322 169.844ZM187.488 134.89C186.078 138.048 189.006 137.569 198.96 128.883C203.623 124.808 212.976 116.283 205.569 112.039C198.457 107.959 190.811 127.643 190.811 127.643L187.488 134.89ZM173.688 181.091C172.199 181.96 173.66 182.299 180.494 180.936C183.699 180.301 190.218 178.891 188.014 176.109C185.88 173.43 177.138 179.07 177.138 179.07L173.688 181.091Z" fill="#CC9F68"/>
<path opacity="0.3" d="M180.95 133.48C180.95 133.48 174.398 116.833 180.231 114.854C186.303 112.791 186.035 123.784 185.8 129.142C185.307 140.591 184.043 142.72 183.098 139.924L180.95 133.48ZM178.981 146.466C180.781 148.816 181.288 146.381 178.041 135.388C176.518 130.218 173.209 119.761 168.133 123.685C163.259 127.445 174.859 141.075 174.859 141.075L178.981 146.466ZM175.503 156.007C177.218 157.53 177.251 155.608 173.176 147.669C171.263 143.952 167.217 136.427 163.903 140.149C160.721 143.74 171.564 152.468 171.564 152.468L175.503 156.007ZM171.743 167.353C173.458 168.88 173.491 166.953 169.416 159.02C167.503 155.302 163.457 147.773 160.143 151.5C156.98 155.1 167.79 163.828 167.79 163.828L171.743 167.353ZM182.6 144.257C179.855 145.329 182.036 146.494 193.499 146.461C198.876 146.461 209.855 146.217 207.514 140.243C205.272 134.505 188.945 141.813 188.945 141.813L182.6 144.257ZM179.474 151.89C176.57 152.393 178.478 153.972 189.72 156.219C194.989 157.276 205.794 159.227 204.69 152.929C203.632 146.856 186.176 150.776 186.176 150.776L179.474 151.89ZM175.977 161.21C173.505 161.567 175.084 162.944 184.536 165.106C188.968 166.121 198.063 168.025 197.273 162.653C196.521 157.483 181.669 160.406 181.669 160.406L175.977 161.21ZM173.322 169.844C170.901 170.46 172.617 171.663 182.252 172.81C186.764 173.345 196.009 174.276 194.66 169.017C193.358 163.969 178.901 168.439 178.901 168.439L173.322 169.844ZM187.488 134.89C186.078 138.048 189.006 137.569 198.96 128.883C203.623 124.808 212.976 116.283 205.569 112.039C198.457 107.959 190.811 127.643 190.811 127.643L187.488 134.89ZM173.688 181.091C172.199 181.96 173.66 182.299 180.494 180.936C183.699 180.301 190.218 178.891 188.014 176.109C185.88 173.43 177.138 179.07 177.138 179.07L173.688 181.091Z" fill="white"/>
<path d="M183.84 141.23L182.698 122.228ZM180.226 147.5L173.007 131.158ZM198.857 142.748L181.556 145.23ZM176.485 156.308L167.118 144.29ZM178.13 152.623L191.036 153.272ZM175.075 161.84L184.945 162.817ZM172.692 167.696L167.79 160.322ZM172.128 170.3L183.732 170.408ZM169.778 192.07C169.856 192.064 169.928 192.028 169.979 191.969C170.03 191.91 170.056 191.833 170.051 191.755C169.313 180.673 173.599 162.521 180.475 147.622C184.87 138.1 202.095 119.385 202.279 119.197C202.334 119.141 202.365 119.066 202.365 118.988C202.365 118.909 202.334 118.834 202.279 118.778C202.252 118.751 202.219 118.729 202.184 118.715C202.148 118.7 202.11 118.692 202.072 118.692C202.033 118.692 201.995 118.7 201.96 118.715C201.924 118.729 201.892 118.751 201.865 118.778C201.691 118.966 184.395 137.752 179.963 147.359C172.96 162.62 168.73 180.442 169.482 191.793C169.488 191.868 169.521 191.938 169.576 191.989C169.631 192.04 169.703 192.069 169.778 192.07ZM183.836 141.522C183.914 141.517 183.986 141.482 184.038 141.423C184.09 141.365 184.117 141.289 184.113 141.211L182.99 122.2C182.988 122.161 182.979 122.123 182.962 122.088C182.945 122.053 182.922 122.022 182.893 121.996C182.864 121.97 182.83 121.951 182.794 121.938C182.757 121.925 182.718 121.92 182.68 121.923C182.602 121.928 182.529 121.963 182.477 122.021C182.425 122.079 182.398 122.155 182.402 122.233L183.544 141.235C183.548 141.31 183.58 141.38 183.635 141.432C183.689 141.484 183.761 141.512 183.836 141.512V141.522ZM180.33 147.768C180.4 147.736 180.455 147.678 180.483 147.606C180.511 147.534 180.51 147.454 180.48 147.383L173.256 131.041C173.225 130.97 173.167 130.914 173.095 130.886C173.022 130.857 172.942 130.859 172.871 130.89C172.8 130.921 172.744 130.98 172.716 131.052C172.687 131.124 172.689 131.205 172.72 131.276L179.939 147.618C179.962 147.67 180 147.715 180.047 147.746C180.095 147.778 180.15 147.795 180.207 147.796C180.256 147.799 180.304 147.789 180.348 147.768H180.33ZM181.58 145.512L198.871 143.04C198.913 143.039 198.954 143.029 198.992 143.011C199.029 142.993 199.063 142.968 199.09 142.936C199.117 142.904 199.137 142.867 199.149 142.827C199.161 142.787 199.164 142.745 199.158 142.704C199.153 142.662 199.138 142.622 199.116 142.587C199.094 142.552 199.065 142.521 199.03 142.498C198.995 142.475 198.956 142.459 198.915 142.452C198.874 142.445 198.832 142.447 198.791 142.457L181.5 144.929C181.423 144.934 181.35 144.97 181.299 145.028C181.248 145.086 181.222 145.162 181.227 145.239C181.232 145.317 181.268 145.389 181.326 145.44C181.384 145.491 181.46 145.517 181.537 145.512H181.58ZM176.649 156.543C176.711 156.495 176.751 156.424 176.76 156.347C176.77 156.269 176.749 156.191 176.701 156.129L167.329 144.088C167.281 144.026 167.211 143.985 167.133 143.975C167.055 143.965 166.976 143.986 166.913 144.034C166.851 144.082 166.81 144.153 166.8 144.231C166.79 144.309 166.811 144.387 166.859 144.45L176.25 156.51C176.277 156.545 176.312 156.574 176.352 156.593C176.392 156.613 176.436 156.623 176.48 156.623C176.55 156.619 176.617 156.591 176.668 156.543H176.649ZM191.295 153.286C191.297 153.208 191.269 153.132 191.216 153.075C191.164 153.018 191.09 152.984 191.013 152.98L178.13 152.327C178.058 152.332 177.99 152.363 177.939 152.415C177.888 152.467 177.858 152.536 177.855 152.608C177.851 152.681 177.874 152.752 177.92 152.808C177.965 152.865 178.03 152.903 178.102 152.914L191.008 153.568C191.086 153.57 191.161 153.542 191.219 153.489C191.276 153.437 191.31 153.363 191.313 153.286H191.295ZM185.218 162.846C185.222 162.807 185.219 162.768 185.208 162.73C185.197 162.693 185.179 162.658 185.154 162.628C185.13 162.598 185.1 162.573 185.065 162.554C185.031 162.536 184.993 162.525 184.954 162.521L175.084 161.548C175.046 161.544 175.007 161.548 174.971 161.559C174.934 161.571 174.899 161.589 174.87 161.613C174.84 161.638 174.815 161.668 174.797 161.702C174.779 161.736 174.768 161.773 174.765 161.812C174.758 161.889 174.782 161.965 174.831 162.025C174.88 162.085 174.951 162.123 175.028 162.131L184.898 163.109H184.926C185.002 163.114 185.077 163.089 185.135 163.04C185.193 162.991 185.229 162.921 185.236 162.846H185.218ZM172.833 167.94C172.898 167.897 172.944 167.83 172.96 167.753C172.976 167.677 172.96 167.597 172.918 167.531L168.039 160.157C167.994 160.094 167.927 160.05 167.851 160.035C167.775 160.02 167.695 160.035 167.63 160.077C167.565 160.12 167.519 160.188 167.504 160.264C167.488 160.341 167.503 160.421 167.546 160.486L172.424 167.86C172.452 167.901 172.489 167.934 172.533 167.957C172.576 167.98 172.624 167.992 172.673 167.992C172.737 167.996 172.8 167.977 172.852 167.94H172.833ZM184.028 170.408C184.027 170.331 183.996 170.257 183.942 170.201C183.888 170.146 183.814 170.114 183.737 170.112L172.133 170.004C172.056 170.004 171.981 170.034 171.927 170.089C171.872 170.144 171.841 170.218 171.841 170.295C171.84 170.334 171.847 170.373 171.861 170.409C171.875 170.445 171.896 170.478 171.924 170.506C171.951 170.533 171.983 170.555 172.019 170.57C172.055 170.585 172.094 170.592 172.133 170.591L183.737 170.699C183.777 170.701 183.816 170.695 183.854 170.681C183.891 170.668 183.925 170.647 183.954 170.619C183.983 170.592 184.006 170.559 184.022 170.523C184.038 170.487 184.047 170.448 184.047 170.408H184.028ZM168.457 187.76C168.481 187.709 170.46 182.257 176.41 180.955C176.486 180.938 176.553 180.891 176.596 180.825C176.638 180.759 176.652 180.679 176.635 180.602C176.616 180.527 176.569 180.462 176.503 180.421C176.438 180.38 176.359 180.366 176.283 180.381C170.008 181.754 167.926 187.511 167.903 187.568C167.879 187.642 167.884 187.722 167.918 187.793C167.953 187.863 168.013 187.917 168.086 187.944H168.18C168.243 187.949 168.305 187.934 168.359 187.901C168.412 187.868 168.453 187.819 168.476 187.76H168.457ZM169.778 192.07C169.856 192.064 169.928 192.028 169.979 191.969C170.03 191.91 170.056 191.833 170.051 191.755C169.313 180.673 173.599 162.521 180.475 147.622C184.87 138.1 202.095 119.385 202.279 119.197C202.334 119.141 202.365 119.066 202.365 118.988C202.365 118.909 202.334 118.834 202.279 118.778C202.252 118.751 202.219 118.729 202.184 118.715C202.148 118.7 202.11 118.692 202.072 118.692C202.033 118.692 201.995 118.7 201.96 118.715C201.924 118.729 201.892 118.751 201.865 118.778C201.691 118.966 184.395 137.752 179.963 147.359C172.96 162.62 168.73 180.442 169.482 191.793C169.488 191.868 169.521 191.938 169.576 191.989C169.631 192.04 169.703 192.069 169.778 192.07ZM183.836 141.522C183.914 141.517 183.986 141.482 184.038 141.423C184.09 141.365 184.117 141.289 184.113 141.211L182.99 122.2C182.988 122.161 182.979 122.123 182.962 122.088C182.945 122.053 182.922 122.022 182.893 121.996C182.864 121.97 182.83 121.951 182.794 121.938C182.757 121.925 182.718 121.92 182.68 121.923C182.602 121.928 182.529 121.963 182.477 122.021C182.425 122.079 182.398 122.155 182.402 122.233L183.544 141.235C183.548 141.31 183.58 141.38 183.635 141.432C183.689 141.484 183.761 141.512 183.836 141.512V141.522ZM180.33 147.768C180.4 147.736 180.455 147.678 180.483 147.606C180.511 147.534 180.51 147.454 180.48 147.383L173.256 131.041C173.225 130.97 173.167 130.914 173.095 130.886C173.022 130.857 172.942 130.859 172.871 130.89C172.8 130.921 172.744 130.98 172.716 131.052C172.687 131.124 172.689 131.205 172.72 131.276L179.939 147.618C179.962 147.67 180 147.715 180.047 147.746C180.095 147.778 180.15 147.795 180.207 147.796C180.256 147.799 180.304 147.789 180.348 147.768H180.33ZM181.58 145.512L198.871 143.04C198.913 143.039 198.954 143.029 198.992 143.011C199.029 142.993 199.063 142.968 199.09 142.936C199.117 142.904 199.137 142.867 199.149 142.827C199.161 142.787 199.164 142.745 199.158 142.704C199.153 142.662 199.138 142.622 199.116 142.587C199.094 142.552 199.065 142.521 199.03 142.498C198.995 142.475 198.956 142.459 198.915 142.452C198.874 142.445 198.832 142.447 198.791 142.457L181.5 144.929C181.423 144.934 181.35 144.97 181.299 145.028C181.248 145.086 181.222 145.162 181.227 145.239C181.232 145.317 181.268 145.389 181.326 145.44C181.384 145.491 181.46 145.517 181.537 145.512H181.58ZM176.649 156.543C176.711 156.495 176.751 156.424 176.76 156.347C176.77 156.269 176.749 156.191 176.701 156.129L167.329 144.088C167.306 144.057 167.276 144.031 167.242 144.012C167.208 143.992 167.171 143.98 167.133 143.975C167.094 143.97 167.055 143.972 167.017 143.982C166.98 143.993 166.944 144.01 166.913 144.034C166.883 144.058 166.857 144.087 166.837 144.121C166.818 144.155 166.805 144.192 166.8 144.231C166.795 144.269 166.798 144.308 166.808 144.346C166.818 144.384 166.836 144.419 166.859 144.45L176.25 156.51C176.277 156.545 176.312 156.574 176.352 156.593C176.392 156.613 176.436 156.623 176.48 156.623C176.55 156.619 176.617 156.591 176.668 156.543H176.649ZM191.295 153.286C191.297 153.208 191.269 153.132 191.216 153.075C191.164 153.018 191.09 152.984 191.013 152.98L178.13 152.327C178.058 152.332 177.99 152.363 177.939 152.415C177.888 152.467 177.858 152.536 177.855 152.608C177.851 152.681 177.874 152.752 177.92 152.808C177.965 152.865 178.03 152.903 178.102 152.914L191.008 153.568C191.086 153.57 191.161 153.542 191.219 153.489C191.276 153.437 191.31 153.363 191.313 153.286H191.295ZM185.218 162.846C185.222 162.807 185.219 162.768 185.208 162.73C185.197 162.693 185.179 162.658 185.154 162.628C185.13 162.598 185.1 162.573 185.065 162.554C185.031 162.536 184.993 162.525 184.954 162.521L175.084 161.548C175.046 161.544 175.007 161.548 174.971 161.559C174.934 161.571 174.899 161.589 174.87 161.613C174.84 161.638 174.815 161.668 174.797 161.702C174.779 161.736 174.768 161.773 174.765 161.812C174.758 161.889 174.782 161.965 174.831 162.025C174.88 162.085 174.951 162.123 175.028 162.131L184.898 163.109H184.926C185.002 163.114 185.077 163.089 185.135 163.04C185.193 162.991 185.229 162.921 185.236 162.846H185.218ZM172.833 167.94C172.898 167.897 172.944 167.83 172.96 167.753C172.976 167.677 172.96 167.597 172.918 167.531L168.039 160.157C167.994 160.094 167.927 160.05 167.851 160.035C167.775 160.02 167.695 160.035 167.63 160.077C167.565 160.12 167.519 160.188 167.504 160.264C167.488 160.341 167.503 160.421 167.546 160.486L172.424 167.86C172.452 167.901 172.489 167.934 172.533 167.957C172.576 167.98 172.624 167.992 172.673 167.992C172.737 167.996 172.8 167.977 172.852 167.94H172.833ZM184.028 170.408C184.027 170.331 183.996 170.257 183.942 170.201C183.888 170.146 183.814 170.114 183.737 170.112L172.133 170.004C172.056 170.004 171.981 170.034 171.927 170.089C171.872 170.144 171.841 170.218 171.841 170.295C171.84 170.334 171.847 170.373 171.861 170.409C171.875 170.445 171.896 170.478 171.924 170.506C171.951 170.533 171.983 170.555 172.019 170.57C172.055 170.585 172.094 170.592 172.133 170.591L183.737 170.699C183.777 170.701 183.816 170.695 183.854 170.681C183.891 170.668 183.925 170.647 183.954 170.619C183.983 170.592 184.006 170.559 184.022 170.523C184.038 170.487 184.047 170.448 184.047 170.408H184.028ZM168.457 187.76C168.481 187.709 170.46 182.257 176.41 180.955C176.486 180.938 176.553 180.891 176.596 180.825C176.638 180.759 176.652 180.679 176.635 180.602C176.616 180.527 176.569 180.462 176.503 180.421C176.438 180.38 176.359 180.366 176.283 180.381C170.008 181.754 167.926 187.511 167.903 187.568C167.879 187.642 167.884 187.722 167.918 187.793C167.953 187.863 168.013 187.917 168.086 187.944H168.18C168.243 187.949 168.305 187.934 168.359 187.901C168.412 187.868 168.453 187.819 168.476 187.76H168.457Z" fill="#CC9F68"/>
<path opacity="0.2" d="M183.84 141.23L182.698 122.228ZM180.226 147.5L173.007 131.158ZM198.857 142.748L181.556 145.23ZM176.485 156.308L167.118 144.29ZM178.13 152.623L191.036 153.272ZM175.075 161.84L184.945 162.817ZM172.692 167.696L167.79 160.322ZM172.128 170.3L183.732 170.408ZM169.778 192.07C169.856 192.064 169.928 192.028 169.979 191.969C170.03 191.91 170.056 191.833 170.051 191.755C169.313 180.673 173.599 162.521 180.475 147.622C184.87 138.1 202.095 119.385 202.279 119.197C202.334 119.141 202.365 119.066 202.365 118.988C202.365 118.909 202.334 118.834 202.279 118.778C202.252 118.751 202.219 118.729 202.184 118.715C202.148 118.7 202.11 118.692 202.072 118.692C202.033 118.692 201.995 118.7 201.96 118.715C201.924 118.729 201.892 118.751 201.865 118.778C201.691 118.966 184.395 137.752 179.963 147.359C172.96 162.62 168.73 180.442 169.482 191.793C169.488 191.868 169.521 191.938 169.576 191.989C169.631 192.04 169.703 192.069 169.778 192.07ZM183.836 141.522C183.914 141.517 183.986 141.482 184.038 141.423C184.09 141.365 184.117 141.289 184.113 141.211L182.99 122.2C182.988 122.161 182.979 122.123 182.962 122.088C182.945 122.053 182.922 122.022 182.893 121.996C182.864 121.97 182.83 121.951 182.794 121.938C182.757 121.925 182.718 121.92 182.68 121.923C182.602 121.928 182.529 121.963 182.477 122.021C182.425 122.079 182.398 122.155 182.402 122.233L183.544 141.235C183.548 141.31 183.58 141.38 183.635 141.432C183.689 141.484 183.761 141.512 183.836 141.512V141.522ZM180.33 147.768C180.4 147.736 180.455 147.678 180.483 147.606C180.511 147.534 180.51 147.454 180.48 147.383L173.256 131.041C173.225 130.97 173.167 130.914 173.095 130.886C173.022 130.857 172.942 130.859 172.871 130.89C172.8 130.921 172.744 130.98 172.716 131.052C172.687 131.124 172.689 131.205 172.72 131.276L179.939 147.618C179.962 147.67 180 147.715 180.047 147.746C180.095 147.778 180.15 147.795 180.207 147.796C180.256 147.799 180.304 147.789 180.348 147.768H180.33ZM181.58 145.512L198.871 143.04C198.913 143.039 198.954 143.029 198.992 143.011C199.029 142.993 199.063 142.968 199.09 142.936C199.117 142.904 199.137 142.867 199.149 142.827C199.161 142.787 199.164 142.745 199.158 142.704C199.153 142.662 199.138 142.622 199.116 142.587C199.094 142.552 199.065 142.521 199.03 142.498C198.995 142.475 198.956 142.459 198.915 142.452C198.874 142.445 198.832 142.447 198.791 142.457L181.5 144.929C181.423 144.934 181.35 144.97 181.299 145.028C181.248 145.086 181.222 145.162 181.227 145.239C181.232 145.317 181.268 145.389 181.326 145.44C181.384 145.491 181.46 145.517 181.537 145.512H181.58ZM176.649 156.543C176.711 156.495 176.751 156.424 176.76 156.347C176.77 156.269 176.749 156.191 176.701 156.129L167.329 144.088C167.281 144.026 167.211 143.985 167.133 143.975C167.055 143.965 166.976 143.986 166.913 144.034C166.851 144.082 166.81 144.153 166.8 144.231C166.79 144.309 166.811 144.387 166.859 144.45L176.25 156.51C176.277 156.545 176.312 156.574 176.352 156.593C176.392 156.613 176.436 156.623 176.48 156.623C176.55 156.619 176.617 156.591 176.668 156.543H176.649ZM191.295 153.286C191.297 153.208 191.269 153.132 191.216 153.075C191.164 153.018 191.09 152.984 191.013 152.98L178.13 152.327C178.058 152.332 177.99 152.363 177.939 152.415C177.888 152.467 177.858 152.536 177.855 152.608C177.851 152.681 177.874 152.752 177.92 152.808C177.965 152.865 178.03 152.903 178.102 152.914L191.008 153.568C191.086 153.57 191.161 153.542 191.219 153.489C191.276 153.437 191.31 153.363 191.313 153.286H191.295ZM185.218 162.846C185.222 162.807 185.219 162.768 185.208 162.73C185.197 162.693 185.179 162.658 185.154 162.628C185.13 162.598 185.1 162.573 185.065 162.554C185.031 162.536 184.993 162.525 184.954 162.521L175.084 161.548C175.046 161.544 175.007 161.548 174.971 161.559C174.934 161.571 174.899 161.589 174.87 161.613C174.84 161.638 174.815 161.668 174.797 161.702C174.779 161.736 174.768 161.773 174.765 161.812C174.758 161.889 174.782 161.965 174.831 162.025C174.88 162.085 174.951 162.123 175.028 162.131L184.898 163.109H184.926C185.002 163.114 185.077 163.089 185.135 163.04C185.193 162.991 185.229 162.921 185.236 162.846H185.218ZM172.833 167.94C172.898 167.897 172.944 167.83 172.96 167.753C172.976 167.677 172.96 167.597 172.918 167.531L168.039 160.157C167.994 160.094 167.927 160.05 167.851 160.035C167.775 160.02 167.695 160.035 167.63 160.077C167.565 160.12 167.519 160.188 167.504 160.264C167.488 160.341 167.503 160.421 167.546 160.486L172.424 167.86C172.452 167.901 172.489 167.934 172.533 167.957C172.576 167.98 172.624 167.992 172.673 167.992C172.737 167.996 172.8 167.977 172.852 167.94H172.833ZM184.028 170.408C184.027 170.331 183.996 170.257 183.942 170.201C183.888 170.146 183.814 170.114 183.737 170.112L172.133 170.004C172.056 170.004 171.981 170.034 171.927 170.089C171.872 170.144 171.841 170.218 171.841 170.295C171.84 170.334 171.847 170.373 171.861 170.409C171.875 170.445 171.896 170.478 171.924 170.506C171.951 170.533 171.983 170.555 172.019 170.57C172.055 170.585 172.094 170.592 172.133 170.591L183.737 170.699C183.777 170.701 183.816 170.695 183.854 170.681C183.891 170.668 183.925 170.647 183.954 170.619C183.983 170.592 184.006 170.559 184.022 170.523C184.038 170.487 184.047 170.448 184.047 170.408H184.028ZM168.457 187.76C168.481 187.709 170.46 182.257 176.41 180.955C176.486 180.938 176.553 180.891 176.596 180.825C176.638 180.759 176.652 180.679 176.635 180.602C176.616 180.527 176.569 180.462 176.503 180.421C176.438 180.38 176.359 180.366 176.283 180.381C170.008 181.754 167.926 187.511 167.903 187.568C167.879 187.642 167.884 187.722 167.918 187.793C167.953 187.863 168.013 187.917 168.086 187.944H168.18C168.243 187.949 168.305 187.934 168.359 187.901C168.412 187.868 168.453 187.819 168.476 187.76H168.457ZM169.778 192.07C169.856 192.064 169.928 192.028 169.979 191.969C170.03 191.91 170.056 191.833 170.051 191.755C169.313 180.673 173.599 162.521 180.475 147.622C184.87 138.1 202.095 119.385 202.279 119.197C202.334 119.141 202.365 119.066 202.365 118.988C202.365 118.909 202.334 118.834 202.279 118.778C202.252 118.751 202.219 118.729 202.184 118.715C202.148 118.7 202.11 118.692 202.072 118.692C202.033 118.692 201.995 118.7 201.96 118.715C201.924 118.729 201.892 118.751 201.865 118.778C201.691 118.966 184.395 137.752 179.963 147.359C172.96 162.62 168.73 180.442 169.482 191.793C169.488 191.868 169.521 191.938 169.576 191.989C169.631 192.04 169.703 192.069 169.778 192.07ZM183.836 141.522C183.914 141.517 183.986 141.482 184.038 141.423C184.09 141.365 184.117 141.289 184.113 141.211L182.99 122.2C182.988 122.161 182.979 122.123 182.962 122.088C182.945 122.053 182.922 122.022 182.893 121.996C182.864 121.97 182.83 121.951 182.794 121.938C182.757 121.925 182.718 121.92 182.68 121.923C182.602 121.928 182.529 121.963 182.477 122.021C182.425 122.079 182.398 122.155 182.402 122.233L183.544 141.235C183.548 141.31 183.58 141.38 183.635 141.432C183.689 141.484 183.761 141.512 183.836 141.512V141.522ZM180.33 147.768C180.4 147.736 180.455 147.678 180.483 147.606C180.511 147.534 180.51 147.454 180.48 147.383L173.256 131.041C173.225 130.97 173.167 130.914 173.095 130.886C173.022 130.857 172.942 130.859 172.871 130.89C172.8 130.921 172.744 130.98 172.716 131.052C172.687 131.124 172.689 131.205 172.72 131.276L179.939 147.618C179.962 147.67 180 147.715 180.047 147.746C180.095 147.778 180.15 147.795 180.207 147.796C180.256 147.799 180.304 147.789 180.348 147.768H180.33ZM181.58 145.512L198.871 143.04C198.913 143.039 198.954 143.029 198.992 143.011C199.029 142.993 199.063 142.968 199.09 142.936C199.117 142.904 199.137 142.867 199.149 142.827C199.161 142.787 199.164 142.745 199.158 142.704C199.153 142.662 199.138 142.622 199.116 142.587C199.094 142.552 199.065 142.521 199.03 142.498C198.995 142.475 198.956 142.459 198.915 142.452C198.874 142.445 198.832 142.447 198.791 142.457L181.5 144.929C181.423 144.934 181.35 144.97 181.299 145.028C181.248 145.086 181.222 145.162 181.227 145.239C181.232 145.317 181.268 145.389 181.326 145.44C181.384 145.491 181.46 145.517 181.537 145.512H181.58ZM176.649 156.543C176.711 156.495 176.751 156.424 176.76 156.347C176.77 156.269 176.749 156.191 176.701 156.129L167.329 144.088C167.306 144.057 167.276 144.031 167.242 144.012C167.208 143.992 167.171 143.98 167.133 143.975C167.094 143.97 167.055 143.972 167.017 143.982C166.98 143.993 166.944 144.01 166.913 144.034C166.883 144.058 166.857 144.087 166.837 144.121C166.818 144.155 166.805 144.192 166.8 144.231C166.795 144.269 166.798 144.308 166.808 144.346C166.818 144.384 166.836 144.419 166.859 144.45L176.25 156.51C176.277 156.545 176.312 156.574 176.352 156.593C176.392 156.613 176.436 156.623 176.48 156.623C176.55 156.619 176.617 156.591 176.668 156.543H176.649ZM191.295 153.286C191.297 153.208 191.269 153.132 191.216 153.075C191.164 153.018 191.09 152.984 191.013 152.98L178.13 152.327C178.058 152.332 177.99 152.363 177.939 152.415C177.888 152.467 177.858 152.536 177.855 152.608C177.851 152.681 177.874 152.752 177.92 152.808C177.965 152.865 178.03 152.903 178.102 152.914L191.008 153.568C191.086 153.57 191.161 153.542 191.219 153.489C191.276 153.437 191.31 153.363 191.313 153.286H191.295ZM185.218 162.846C185.222 162.807 185.219 162.768 185.208 162.73C185.197 162.693 185.179 162.658 185.154 162.628C185.13 162.598 185.1 162.573 185.065 162.554C185.031 162.536 184.993 162.525 184.954 162.521L175.084 161.548C175.046 161.544 175.007 161.548 174.971 161.559C174.934 161.571 174.899 161.589 174.87 161.613C174.84 161.638 174.815 161.668 174.797 161.702C174.779 161.736 174.768 161.773 174.765 161.812C174.758 161.889 174.782 161.965 174.831 162.025C174.88 162.085 174.951 162.123 175.028 162.131L184.898 163.109H184.926C185.002 163.114 185.077 163.089 185.135 163.04C185.193 162.991 185.229 162.921 185.236 162.846H185.218ZM172.833 167.94C172.898 167.897 172.944 167.83 172.96 167.753C172.976 167.677 172.96 167.597 172.918 167.531L168.039 160.157C167.994 160.094 167.927 160.05 167.851 160.035C167.775 160.02 167.695 160.035 167.63 160.077C167.565 160.12 167.519 160.188 167.504 160.264C167.488 160.341 167.503 160.421 167.546 160.486L172.424 167.86C172.452 167.901 172.489 167.934 172.533 167.957C172.576 167.98 172.624 167.992 172.673 167.992C172.737 167.996 172.8 167.977 172.852 167.94H172.833ZM184.028 170.408C184.027 170.331 183.996 170.257 183.942 170.201C183.888 170.146 183.814 170.114 183.737 170.112L172.133 170.004C172.056 170.004 171.981 170.034 171.927 170.089C171.872 170.144 171.841 170.218 171.841 170.295C171.84 170.334 171.847 170.373 171.861 170.409C171.875 170.445 171.896 170.478 171.924 170.506C171.951 170.533 171.983 170.555 172.019 170.57C172.055 170.585 172.094 170.592 172.133 170.591L183.737 170.699C183.777 170.701 183.816 170.695 183.854 170.681C183.891 170.668 183.925 170.647 183.954 170.619C183.983 170.592 184.006 170.559 184.022 170.523C184.038 170.487 184.047 170.448 184.047 170.408H184.028ZM168.457 187.76C168.481 187.709 170.46 182.257 176.41 180.955C176.486 180.938 176.553 180.891 176.596 180.825C176.638 180.759 176.652 180.679 176.635 180.602C176.616 180.527 176.569 180.462 176.503 180.421C176.438 180.38 176.359 180.366 176.283 180.381C170.008 181.754 167.926 187.511 167.903 187.568C167.879 187.642 167.884 187.722 167.918 187.793C167.953 187.863 168.013 187.917 168.086 187.944H168.18C168.243 187.949 168.305 187.934 168.359 187.901C168.412 187.868 168.453 187.819 168.476 187.76H168.457Z" fill="black"/>
<path d="M177.453 183.784H164.147V186.538H165.308L167.71 201.564H173.891L176.292 186.538H177.453V183.784Z" fill="#CC9F68"/>
<path opacity="0.3" d="M177.453 183.784H164.147V186.538H165.308L167.71 201.564H173.891L176.292 186.538H177.453V183.784Z" fill="white"/>
<path d="M57.6596 100.5L42.1825 95.4475L40.8054 91.8097L37.6611 91.711L31.9553 90.63L32.6415 91.8097L39.8231 97.022L41.595 97.9056L57.7818 106.361L57.6596 100.5Z" fill="white" stroke="#263238" stroke-width="1.00396" stroke-miterlimit="10"/>
<path d="M40.8054 91.8097L39.3296 90.9261L36.3827 92.0071L36.8715 92.5946L40.8054 91.8097Z" fill="white" stroke="#263238" stroke-width="1.00396" stroke-linejoin="round"/>
<path d="M57.6596 100.5L42.1825 95.4475L40.8054 91.8097L37.6611 91.711L31.9553 90.63L32.6415 91.8097L39.8231 97.022L41.595 97.9056L57.7818 106.361L57.6596 100.5Z" fill="white"/>
<mask id="mask0_12_272" style="mask-type:luminance" maskUnits="userSpaceOnUse" x="31" y="90" width="27" height="17">
<path d="M57.6596 100.5L42.1825 95.4475L40.8054 91.8097L37.6611 91.711L31.9553 90.63L32.6415 91.8097L39.8231 97.022L41.595 97.9056L57.7818 106.361L57.6596 100.5Z" fill="white"/>
</mask>
<g mask="url(#mask0_12_272)">
<path opacity="0.5" d="M57.6596 100.5L42.1825 95.4475L40.8054 91.8097L37.6611 91.711L31.9553 90.63L32.6415 91.8097L39.8231 97.022L41.595 97.9056L57.7818 106.361L57.6596 100.5Z" fill="#CC9F68" stroke="#263238" stroke-width="1.00396" stroke-miterlimit="10"/>
</g>
<path d="M57.6596 100.5L42.1825 95.4475L40.8054 91.8097L37.6611 91.711L31.9553 90.63L32.6415 91.8097L39.8231 97.022L41.595 97.9056L57.7818 106.361L57.6596 100.5Z" stroke="#263238" stroke-width="1.00396" stroke-miterlimit="10"/>
<path d="M40.8054 91.8097L39.3296 90.9261L36.3827 92.0071L36.8715 92.5946L40.8054 91.8097Z" fill="white"/>
<mask id="mask1_12_272" style="mask-type:luminance" maskUnits="userSpaceOnUse" x="36" y="90" width="5" height="3">
<path d="M40.8054 91.8097L39.3296 90.9261L36.3827 92.0071L36.8715 92.5946L40.8054 91.8097Z" fill="white"/>
</mask>
<g mask="url(#mask1_12_272)">
<path opacity="0.5" d="M40.8054 91.8097L39.3296 90.9261L36.3827 92.0071L36.8715 92.5946L40.8054 91.8097Z" fill="#CC9F68" stroke="#263238" stroke-width="1.00396" stroke-linejoin="round"/>
</g>
<path d="M40.8054 91.8097L39.3296 90.9261L36.3827 92.0071L36.8715 92.5946L40.8054 91.8097Z" stroke="#263238" stroke-width="1.00396" stroke-linejoin="round"/>
<path d="M60.9449 67.7082C60.9449 67.7082 60.7052 69.8232 61.3021 71.1815C61.899 72.5398 65.2125 77.1411 65.2125 77.1411L59.0273 82.0996C59.0273 82.0996 56.4611 76.9296 55.9723 76.093C55.4835 75.2564 54.896 71.6562 56.4893 69.0759C58.0826 66.4956 60.3762 65.8 60.9449 67.7082Z" fill="white"/>
<mask id="mask2_12_272" style="mask-type:luminance" maskUnits="userSpaceOnUse" x="55" y="66" width="11" height="17">
<path d="M60.9449 67.7082C60.9449 67.7082 60.7052 69.8232 61.3021 71.1815C61.899 72.5398 65.2125 77.1411 65.2125 77.1411L59.0273 82.0996C59.0273 82.0996 56.4611 76.9296 55.9723 76.093C55.4835 75.2564 54.896 71.6562 56.4893 69.0759C58.0826 66.4956 60.3762 65.8 60.9449 67.7082Z" fill="white"/>
</mask>
<g mask="url(#mask2_12_272)">
<g style="mix-blend-mode:multiply" opacity="0.5">
<path d="M57.7677 74.5044L60.4514 80.0692L59.0226 82.1043L56.3248 77.2868L57.7677 74.5044Z" fill="#CC9F68"/>
</g>
</g>
<path d="M60.9449 67.7082C60.9449 67.7082 60.7052 69.8232 61.3021 71.1815C61.899 72.5398 65.2125 77.1411 65.2125 77.1411L59.0273 82.0996C59.0273 82.0996 56.4611 76.9296 55.9723 76.093C55.4835 75.2564 54.896 71.6562 56.4893 69.0759C58.0826 66.4956 60.3762 65.8 60.9449 67.7082Z" stroke="#263238" stroke-width="1.00396" stroke-miterlimit="10"/>
<path d="M62.8625 63.8354C62.4818 61.4854 59.7887 56.7055 55.5164 56.8888C52.7434 57.011 51.4462 57.5703 50.243 58.2518C49.2622 58.8296 48.348 59.5137 47.517 60.2916C45.4302 62.7967 44.697 63.4829 45.1012 65.4005C45.068 66.1654 45.1879 66.9291 45.4537 67.6471C46.0929 69.3532 46.53 70.4671 47.0846 71.2802C46.9154 72.0745 46.4736 74.1707 46.4501 74.6501C46.4266 75.1295 47.8601 74.7958 48.5839 74.6125C49.9281 77.6205 52.3909 79.7073 53.157 79.947C54.4918 80.3653 56.6021 78.1704 57.7207 76.469C58.8393 74.7676 57.9933 72.8547 57.998 72.0933C58.0027 71.3319 60.5125 69.6587 61.4431 69.1276C62.3737 68.5965 63.2385 66.1807 62.8625 63.8354Z" fill="white"/>
<mask id="mask3_12_272" style="mask-type:luminance" maskUnits="userSpaceOnUse" x="44" y="56" width="19" height="24">
<path d="M62.8625 63.8354C62.4818 61.4854 59.7887 56.7055 55.5164 56.8888C52.7434 57.011 51.4462 57.5703 50.243 58.2518C49.2622 58.8296 48.348 59.5137 47.517 60.2916C45.4302 62.7967 44.697 63.4829 45.1012 65.4005C45.068 66.1654 45.1879 66.9291 45.4537 67.6471C46.0929 69.3532 46.53 70.4671 47.0846 71.2802C46.9154 72.0745 46.4736 74.1707 46.4501 74.6501C46.4266 75.1295 47.8601 74.7958 48.5839 74.6125C49.9281 77.6205 52.3909 79.7073 53.157 79.947C54.4918 80.3653 56.6021 78.1704 57.7207 76.469C58.8393 74.7676 57.9933 72.8547 57.998 72.0933C58.0027 71.3319 60.5125 69.6587 61.4431 69.1276C62.3737 68.5965 63.2385 66.1807 62.8625 63.8354Z" fill="white"/>
</mask>
<g mask="url(#mask3_12_272)">
<g style="mix-blend-mode:multiply" opacity="0.5">
<path d="M45.12 65.4005C45.0868 66.1653 45.2067 66.9291 45.4725 67.6471C46.1117 69.3532 46.5488 70.4671 47.1034 71.2802C46.9342 72.0745 46.4924 74.1707 46.4689 74.6501C46.4454 75.1295 47.8789 74.7958 48.6027 74.6125C49.9469 77.6205 52.4097 79.7073 53.1758 79.947C54.5106 80.3653 56.6209 78.1704 57.7395 76.469C58.019 76.0442 58.2004 75.5626 58.2706 75.059C58.2095 74.8381 58.1672 74.7018 58.1672 74.7018C58.1672 74.7018 57.5374 77.1223 56.2872 76.8074C55.037 76.4925 53.1241 73.9874 52.0572 73.1226C50.9903 72.2578 51.4274 71.1204 51.2159 69.8326C51.0044 68.5448 47.846 67.4121 47.6345 66.6742C47.423 65.9363 48.1609 62.8813 48.1609 62.8813C48.1609 62.8813 49.3594 61.2833 49.1009 61.9413C48.9182 62.5118 48.8519 63.1132 48.906 63.7099C48.9601 64.3065 49.1335 64.8862 49.4158 65.4146C49.6139 65.8315 49.9282 66.1823 50.3209 66.425C50.7136 66.6676 51.168 66.7917 51.6295 66.7823L52.7763 61.1L50.3558 59.0978L47.5358 60.2728C45.4302 62.7967 44.7111 63.4829 45.12 65.4005Z" fill="#CC9F68"/>
</g>
</g>
<path d="M62.8625 63.8354C62.4818 61.4854 59.7887 56.7055 55.5164 56.8888C52.7434 57.011 51.4462 57.5703 50.243 58.2518C49.2622 58.8296 48.348 59.5137 47.517 60.2916C45.4302 62.7967 44.697 63.4829 45.1012 65.4005C45.068 66.1654 45.1879 66.9291 45.4537 67.6471C46.0929 69.3532 46.53 70.4671 47.0846 71.2802C46.9154 72.0745 46.4736 74.1707 46.4501 74.6501C46.4266 75.1295 47.8601 74.7958 48.5839 74.6125C49.9281 77.6205 52.3909 79.7073 53.157 79.947C54.4918 80.3653 56.6021 78.1704 57.7207 76.469C58.8393 74.7676 57.9933 72.8547 57.998 72.0933C58.0027 71.3319 60.5125 69.6587 61.4431 69.1276C62.3737 68.5965 63.2385 66.1807 62.8625 63.8354Z" stroke="#263238" stroke-miterlimit="10"/>
<path d="M47.6674 69.8607L48.1374 71.2049C48.1374 71.2049 49.1479 71.5386 50.3793 70.1944" stroke="#263238" stroke-miterlimit="10" stroke-linecap="round"/>
<path d="M51.1407 76.14C51.1407 76.14 52.2593 76.0272 52.7105 74.4574" stroke="#263238" stroke-miterlimit="10" stroke-linecap="round"/>
<path d="M46.8825 68.7374C46.8825 68.7374 47.2162 67.7269 49.2325 67.7269" stroke="#263238" stroke-miterlimit="10" stroke-linecap="round"/>
<path d="M57.2178 55.0181C55.7527 54.8075 54.2752 54.6944 52.7951 54.6797C52.7951 54.6797 48.3677 52.1276 44.1142 54.8489C39.8607 57.5702 41.9052 62.336 41.9052 63.5251C41.9052 64.7142 40.5422 64.7189 41.3929 66.2511C42.2436 67.7833 45.12 66.9373 45.12 66.9373C45.1504 66.3594 45.3031 65.7946 45.5681 65.2801C45.833 64.7656 46.2041 64.3132 46.6569 63.9528C48.1891 62.7637 49.4111 62.5052 49.9187 62.8483C49.9187 62.8483 49.5803 65.4004 50.0879 66.4203C50.0879 66.4203 51.7893 67.271 52.3016 67.271C52.8139 67.271 51.9679 67.9901 53.6646 68.6293C53.9737 68.7404 54.3044 68.7782 54.6306 68.7399C54.9568 68.7015 55.2696 68.5881 55.5446 68.4084C55.7937 67.3744 56.3389 65.8187 57.3541 66.1806C58.844 66.7117 60.2023 70.3777 58.186 71.6279C60.6112 72.0697 63.5487 67.7786 63.7226 63.8682C63.8965 59.9578 59.737 55.4599 57.2178 55.0181Z" fill="#263238"/>
<path d="M49.9939 61.1704C49.9939 61.1704 51.2441 60.4983 52.7763 61.9365C54.3085 63.3747 57.2883 65.297 61.2363 64.2395" stroke="white" stroke-width="0.5" stroke-linecap="round" stroke-linejoin="round"/>
<path d="M49.82 60.019C49.82 60.019 50.6801 58.6748 52.1183 58.6748C53.5565 58.6748 56.917 60.6911 59.6007 60.6911" stroke="white" stroke-width="0.5" stroke-linecap="round" stroke-linejoin="round"/>
<path d="M48.8424 62.6086C48.8424 62.6086 47.2115 60.597 45.6793 62.2279C44.1471 63.8588 45.12 65.4004 45.12 65.4004" stroke="white" stroke-width="0.5" stroke-linecap="round" stroke-linejoin="round"/>
<path d="M42.3235 63.9528C43.2581 63.11 43.8391 61.9447 43.9497 60.691C44.1424 58.5807 47.0235 56.7571 48.8424 58.4867" stroke="white" stroke-width="0.5" stroke-linecap="round" stroke-linejoin="round"/>
<path d="M45.2939 56.2778C45.2939 56.2778 48.175 53.4954 50.572 57.0439" stroke="white" stroke-width="0.5" stroke-linecap="round" stroke-linejoin="round"/>
<path d="M68.7422 193.081C68.7422 193.081 70.5141 195.835 70.3167 197.607L70.124 199.379C70.124 199.379 63.6239 201.16 62.2468 201.16C60.8697 201.16 53.58 200.469 53.58 200.469L53.2651 199.219C53.243 199.127 53.2534 199.029 53.2945 198.944C53.3356 198.858 53.4049 198.789 53.4907 198.749L59.9908 195.717L62.04 193.475L68.7422 193.081Z" fill="white" stroke="#263238" stroke-width="1.00396" stroke-miterlimit="10"/>
<path d="M63.2338 199.773C64.9963 199.91 68.3427 198.833 70.2838 198.147L70.1475 199.379C70.1475 199.379 63.6239 201.16 62.2468 201.16C60.8697 201.16 53.58 200.469 53.58 200.469L53.3544 199.576C54.52 199.581 60.9026 199.595 63.2338 199.773Z" fill="#CC9F68" stroke="#263238" stroke-width="1.00396" stroke-miterlimit="10"/>
<path d="M60.0002 195.717L50.5391 199.835C50.5391 199.835 49.7307 201.86 50.5391 202.264C51.3475 202.669 68.9725 202.264 68.9725 202.264C68.9725 202.264 70.1898 199.064 68.2675 196.916C66.3452 194.768 60.0002 195.717 60.0002 195.717Z" fill="white" stroke="#263238" stroke-width="1.00396" stroke-miterlimit="10"/>
<path d="M68.9725 202.264C68.9725 202.264 51.3475 202.669 50.5391 202.264C50.149 202.067 50.1349 201.498 50.2242 200.958H69.2827C69.2204 201.402 69.1166 201.84 68.9725 202.264Z" fill="#CC9F68" stroke="#263238" stroke-width="1.00396" stroke-miterlimit="10"/>
<path d="M55.5258 124.179C55.5258 124.179 53.0536 135.134 52.1183 141.987C51.183 148.84 50.6331 162.568 50.8305 164.143C51.0279 165.717 60.8697 192.098 60.8697 192.098L61.852 194.448L68.7422 193.071C68.7422 193.071 65.5932 183.032 64.4135 177.519C63.2338 172.006 60.6535 162.949 60.6535 161.374C60.6535 159.8 66.7635 129.729 67.2006 127.755C67.6377 125.781 69.6211 122.75 69.6211 122.75L56.4282 122.482L55.5258 124.179Z" fill="#CC9F68" stroke="#263238" stroke-width="1.00396" stroke-miterlimit="10"/>
<path d="M55.5258 124.179C55.5258 124.179 54.0782 134.185 54.6751 141.141C55.272 148.097 56.5551 162.907 56.5551 165.111C56.5551 167.315 60.113 180.48 60.3151 184.616C60.63 190.59 60.1882 193.546 60.1882 193.546L59.9767 195.713C59.9767 195.713 64.1268 196.305 65.0339 196.563C66.0816 196.833 67.1628 196.95 68.244 196.911C68.244 196.911 69.7527 190.27 69.7527 184.611C69.7527 178.952 68.4978 167.306 67.8727 162.587C67.2476 157.868 69.2169 139.665 70.3355 136.267C71.4541 132.869 73.8981 125.673 72.2531 121.998C70.6081 118.322 55.5258 124.179 55.5258 124.179Z" fill="#CC9F68" stroke="#263238" stroke-width="1.00396" stroke-miterlimit="10"/>
<path d="M74.0814 120.155L73.931 124.63C73.931 124.63 71.252 125.161 67.6424 125.786C64.6626 126.303 57.1802 125.65 54.661 125.405C54.4314 125.385 54.2192 125.275 54.0704 125.099C53.9217 124.923 53.8485 124.695 53.8667 124.465L54.1111 120.423L74.0814 120.155Z" fill="#263238"/>
<path d="M63.6098 75.5525C63.6098 75.5525 59.3798 80.1256 57.7865 82.9691C56.1932 85.8126 55.5634 90.1695 54.9665 93.6005C54.3696 97.0315 55.9864 105.087 55.5305 108.786L54.0876 120.437C54.0876 120.437 53.7774 121.227 54.8161 122.092C55.8548 122.957 60.9261 123.272 65.5086 123.502C67.1818 123.586 72.1779 122.51 72.9957 122.458C73.9827 122.397 74.0156 121.142 74.0579 120.155C74.2553 115.517 75.0919 103.151 75.6418 97.7647C76.7745 86.7808 70.5752 76.1776 63.6098 75.5525Z" fill="white" stroke="#263238" stroke-width="1.00396" stroke-miterlimit="10"/>
<g style="mix-blend-mode:multiply">
<path d="M75.1248 104.011C75.3128 101.572 75.5008 99.358 75.6653 97.7647C75.7123 97.2947 75.7405 96.8247 75.764 96.3547L64.5263 98.2347L54.8725 94.9447C54.8736 96.9423 54.9865 98.9382 55.2109 100.923L64.6814 103.574L75.1248 104.011Z" fill="#CC9F68"/>
</g>
<g style="mix-blend-mode:multiply">
<path d="M63.1915 76.0131C62.5523 76.7228 61.2833 78.1657 60.0754 79.6979L67.21 86.95L69.56 86.01L63.1915 76.0131Z" fill="#CC9F68"/>
</g>
<path d="M63.6098 75.5525C63.6098 75.5525 59.3798 80.1256 57.7865 82.9691C57.3141 83.8333 56.9314 84.7435 56.6444 85.6857L65.1514 75.858C64.6488 75.7057 64.1325 75.6034 63.6098 75.5525Z" fill="#263238"/>
<g style="mix-blend-mode:multiply">
<path d="M55.2955 91.7486L64.5263 94.7848L75.7358 93.497C75.5601 90.7046 74.9398 87.9581 73.8981 85.3613L64.86 88.985L56.7807 85.3237C56.1201 87.4237 55.6235 89.5718 55.2955 91.7486Z" fill="#CC9F68"/>
</g>
<g style="mix-blend-mode:multiply">
<path d="M71.1862 115.517C66.5044 116.303 61.7005 115.91 57.2084 114.374L54.9571 113.604L54.2568 119.244L56.823 119.963C61.7015 121.327 66.8003 121.72 71.8301 121.119L73.9028 120.87C74.0107 120.641 74.0714 120.394 74.0814 120.141C74.1378 118.886 74.2365 117.063 74.3634 114.971L71.1862 115.517Z" fill="#CC9F68"/>
</g>
<g style="mix-blend-mode:multiply">
<path d="M72.4411 107.837C67.7591 108.626 62.9541 108.232 58.4633 106.69L55.5963 105.708C55.6675 106.732 55.6533 107.76 55.554 108.781L55.2203 111.493L58.0779 112.292C62.9545 113.658 68.0518 114.052 73.0803 113.453L74.4903 113.284C74.6078 111.404 74.7441 109.402 74.8898 107.423L72.4411 107.837Z" fill="#CC9F68"/>
</g>
<path d="M38.9207 91.0577H27.26V91.6828H38.9207V91.0577Z" fill="#263238"/>
<path d="M67.9855 80.6238C67.9855 80.6238 71.3178 82.8939 71.393 88.2566C71.4259 90.6066 71.1815 92.8015 70.641 96.6508C70.1005 100.5 66.7447 113.035 64.1315 114.558C61.5183 116.081 57.4622 113.204 57.4622 113.204L37.8444 100.18L33.1021 96.35L30.7521 91.9132L31.49 90.5032L37.2757 94.94L34.1596 92.0589L34.7706 91.2834L35.8986 92.0683L39.1886 93.2997L39.9077 97.9997L40.9229 98.6953L59.69 105.553C59.69 105.553 59.455 95.4523 59.6289 93.5206C59.8028 91.5889 60.0425 86.7338 62.1105 83.2135" fill="white"/>
<mask id="mask4_12_272" style="mask-type:luminance" maskUnits="userSpaceOnUse" x="30" y="80" width="42" height="36">
<path d="M67.9855 80.6238C67.9855 80.6238 71.3178 82.8939 71.393 88.2566C71.4259 90.6066 71.1815 92.8015 70.641 96.6508C70.1005 100.5 66.7447 113.035 64.1315 114.558C61.5183 116.081 57.4622 113.204 57.4622 113.204L37.8444 100.18L33.1021 96.35L30.7521 91.9132L31.49 90.5032L37.2757 94.94L34.1596 92.0589L34.7706 91.2834L35.8986 92.0683L39.1886 93.2997L39.9077 97.9997L40.9229 98.6953L59.69 105.553C59.69 105.553 59.455 95.4523 59.6289 93.5206C59.8028 91.5889 60.0425 86.7338 62.1105 83.2135" fill="white"/>
</mask>
<g mask="url(#mask4_12_272)">
<g style="mix-blend-mode:multiply" opacity="0.5">
<path d="M59.5584 97.9198C59.5584 101.407 59.6759 105.553 59.6759 105.553L40.9276 98.7235L39.9124 98.0279L39.1933 93.3279L35.9033 92.0965L34.78 91.2975L34.169 92.073L37.2757 94.94L31.49 90.5032L30.7897 91.8897L33.1397 96.3265L37.882 100.18L39.0758 100.975L64.9963 109.327L59.5584 97.9198Z" fill="#CC9F68"/>
</g>
</g>
<path d="M67.9855 80.6238C67.9855 80.6238 71.3178 82.8939 71.393 88.2566C71.4259 90.6066 71.1815 92.8015 70.641 96.6508C70.1005 100.5 66.7447 113.035 64.1315 114.558C61.5183 116.081 57.4622 113.204 57.4622 113.204L37.8444 100.18L33.1021 96.35L30.7521 91.9132L31.49 90.5032L37.2757 94.94L34.1596 92.0589L34.7706 91.2834L35.8986 92.0683L39.1886 93.2997L39.9077 97.9997L40.9229 98.6953L59.69 105.553C59.69 105.553 59.455 95.4523 59.6289 93.5206C59.8028 91.5889 60.0425 86.7338 62.1105 83.2135" stroke="#263238" stroke-width="1.00396" stroke-miterlimit="10"/>
<path d="M59.69 105.553L66.8528 110.723L68.7093 107.433C68.7093 107.433 69.9924 106.422 70.1804 105.661C70.3684 104.899 70.1287 103.663 70.3214 102.902C70.5141 102.14 71.4729 101.426 71.5622 99.5835C71.6515 97.7411 71.5622 96.2042 71.5622 96.2042C71.5622 96.2042 73.1132 89.8263 72.944 87.0533C72.7748 84.2803 70.1005 79.3782 67.9573 79.2701C65.8141 79.162 63.027 79.4863 60.865 82.7575C58.703 86.0287 59.1448 95.5791 58.8064 96.176C58.468 96.7729 58.938 99.7198 58.938 99.7198C58.7502 99.8599 58.5943 100.038 58.4809 100.243C58.3674 100.449 58.2989 100.675 58.28 100.909C58.2424 101.675 59.0696 103.56 59.0696 103.56L59.69 105.553Z" fill="white" stroke="#263238" stroke-width="1.00396" stroke-miterlimit="10"/>
<g style="mix-blend-mode:multiply">
<path d="M58.9944 93.7227C59.0091 94.5428 58.9478 95.3625 58.8111 96.1714C58.5103 96.7072 58.8534 99.1277 58.9286 99.6212C62.9573 100.872 67.2174 101.194 71.3883 100.561C71.4779 100.234 71.5315 99.8986 71.5481 99.5601C71.6421 97.7224 71.5481 96.1808 71.5481 96.1808C71.5481 96.1808 71.6844 95.6121 71.8724 94.7473C67.5528 95.0218 63.2162 94.6768 58.9944 93.7227Z" fill="#CC9F68"/>
</g>
<g style="mix-blend-mode:multiply">
<path d="M60.5736 83.2793C59.9015 84.6282 59.5255 86.6539 59.3093 88.7078C63.576 90.3361 68.1763 90.896 72.709 90.3387C72.8899 89.2517 72.9701 88.1504 72.9487 87.0487C72.8673 86.1779 72.6616 85.3232 72.3377 84.5107C68.3799 84.6031 64.4265 84.1893 60.5736 83.2793Z" fill="#CC9F68"/>
</g>
<path d="M59.0696 103.611L59.6759 105.553L66.8387 110.723L68.6952 107.433C68.6952 107.433 69.9783 106.422 70.1663 105.661C70.1998 105.528 70.2203 105.393 70.2274 105.256C66.4528 105.191 62.7024 104.638 59.0696 103.611Z" fill="#263238"/>
<path d="M64.2537 196.502C64.2537 196.502 64.4135 192.432 65.1937 186.482C65.9739 180.532 64.0986 172.081 63.7837 170.671C63.4688 169.261 63.9435 166.131 63.6286 165.031C63.3137 163.931 61.7909 159.241 62.6886 153.798C63.5863 148.355 64.3148 133.969 64.3148 133.969C64.3148 133.969 62.0541 132.131 61.3914 129.739C60.7287 127.346 61.2363 126.594 61.2363 126.594" stroke="#263238" stroke-width="1.00396" stroke-miterlimit="10"/>
<path d="M65.3018 126.815L64.4323 131.628" stroke="#263238" stroke-width="1.00396" stroke-miterlimit="10"/>
</svg>
